<svg xmlns="http://www.w3.org/2000/svg" width="48" height="48" viewBox="0 0 48 48">
    <path fill="#1fc1c3" fill-rule="evenodd" d="M0 24.609c0 10.87 6.876 20.095 16.413 23.349 1.2.226 1.638-.533 1.638-1.186 0-.585-.02-2.132-.032-4.185-6.676 1.487-8.084-3.299-8.084-3.299-1.092-2.843-2.666-3.6-2.666-3.6-2.179-1.527.165-1.495.165-1.495 2.41.173 3.676 2.536 3.676 2.536 2.143 3.76 5.618 2.674 6.986 2.044.218-1.59.838-2.674 1.523-3.29-5.33-.621-10.932-2.732-10.932-12.161 0-2.688.935-4.884 2.47-6.605-.245-.622-1.069-3.124.236-6.51 0 0 2.016-.664 6.6 2.52 1.915-.545 3.967-.818 6.008-.827 2.039.009 4.091.282 6.01.827 4.58-3.184 6.593-2.52 6.593-2.52 1.308 3.386.484 5.888.238 6.51 1.539 1.72 2.467 3.917 2.467 6.605 0 9.452-5.61 11.532-10.957 12.143.861.76 1.628 2.261 1.628 4.556 0 3.29-.028 5.944-.028 6.751 0 .659.431 1.423 1.65 1.183C41.13 44.695 48 35.478 48 24.609 48 11.017 37.253 0 23.998 0 10.747 0 0 11.017 0 24.609z"/>
</svg>