<svg xmlns="http://www.w3.org/2000/svg" viewBox="-1.298 -1.036 113 82" overflow="visible">
  <path fill="#E52627" d="M6.825 3.003C6.631 1.314 5.163.001 3.427.001 1.553.001.018 1.521.018 3.394a3.388 3.388 0 0 0 3.384 3.393 3.396 3.396 0 0 0 3.325-2.725c24.787.213 45.055 14.872 46.66 33.319-1.302-2.533-3.811-6.706-7.896-10.925C39.592 20.368 29.166 13.11 13 13.11a.492.492 0 0 0-.18.033 3.395 3.395 0 0 0-3.344-2.833 3.398 3.398 0 0 0-3.394 3.393 3.398 3.398 0 0 0 3.394 3.396 3.394 3.394 0 0 0 3.36-2.961.487.487 0 0 0 .163.029c15.774 0 25.946 7.063 31.702 12.993a46.205 46.205 0 0 1 7.449 10.16 66.442 66.442 0 0 0-7.917-6.092c-5.749-3.768-14.715-8.249-24.798-8.264a3.4 3.4 0 0 0-3.352-2.871c-1.872 0-3.393 1.52-3.393 3.393s1.521 3.393 3.393 3.393a3.395 3.395 0 0 0 3.348-2.855c15.059.019 27.819 10.264 32.398 14.441-5.076-1.82-17.204-5.821-26.284-5.994a3.396 3.396 0 0 0-3.38-3.126 3.398 3.398 0 0 0-3.395 3.393 3.398 3.398 0 0 0 3.395 3.396c1.599 0 2.94-1.212 3.295-2.706 8.974.154 21.075 4.215 26.07 5.862H33.993c-.196-1.647-1.631-2.9-3.37-2.9-1.868 0-3.391 1.568-3.391 3.441 0 1.867 1.522 3.34 3.391 3.34 1.644 0 3.021-1.134 3.331-2.781H51.28c-5.13 2.195-16.985 5.791-25.818 5.941-.354-1.494-1.696-2.571-3.295-2.571-1.873 0-3.395 1.543-3.395 3.412a3.404 3.404 0 0 0 3.395 3.403 3.395 3.395 0 0 0 3.38-3.118c9.08-.177 21.208-4.175 26.284-5.994-4.579 4.178-17.34 14.423-32.398 14.442a3.394 3.394 0 0 0-3.348-2.856 3.396 3.396 0 0 0-3.393 3.394 3.397 3.397 0 0 0 3.393 3.396 3.402 3.402 0 0 0 3.352-2.875c10.083-.011 19.049-4.5 24.798-8.26a66.155 66.155 0 0 0 8.011-6.183 45.927 45.927 0 0 1-7.514 10.307c-5.76 5.938-15.94 13.023-31.733 13.023a.57.57 0 0 0-.151.026 3.394 3.394 0 0 0-3.372-3.044 3.396 3.396 0 0 0-3.394 3.393 3.4 3.4 0 0 0 3.394 3.396 3.397 3.397 0 0 0 3.328-2.751.586.586 0 0 0 .195.036c16.166 0 26.59-7.258 32.488-13.346 4.02-4.146 6.513-8.252 7.834-10.801C51.297 60.93 31.152 75.267 6.6 75.432A3.391 3.391 0 0 0 0 76.536a3.395 3.395 0 0 0 6.79 0c0-.016.069-.03.069-.049 26.215-.248 47.267-16.412 47.815-36.33v-.413C54.675 19.632 33.225 3.247 6.825 3.003m-1.126.758a2.339 2.339 0 0 1-2.304 1.97 2.342 2.342 0 0 1-2.338-2.338 2.342 2.342 0 0 1 2.338-2.338c1.238 0 2.25.972 2.327 2.191a.527.527 0 0 0-.023.515m3.776 12.28a2.34 2.34 0 0 1-2.337-2.338 2.34 2.34 0 0 1 2.337-2.335 2.34 2.34 0 0 1 2.338 2.335 2.34 2.34 0 0 1-2.338 2.338m6.609 9.78c-1.287 0-2.336-1.047-2.336-2.334s1.049-2.338 2.336-2.338c1.289 0 2.339 1.051 2.339 2.338s-1.05 2.334-2.339 2.334m8.371 7.379a2.342 2.342 0 0 1-2.289 1.876c-1.289 0-2.336-1.051-2.336-2.338s1.047-2.334 2.336-2.334a2.336 2.336 0 0 1 2.332 2.297.544.544 0 0 0-.086.293.49.49 0 0 0 .043.206m6.168 9.014a2.336 2.336 0 1 1 2.338-2.338 2.34 2.34 0 0 1-2.338 2.338m-8.457 7.314a2.338 2.338 0 0 1 0-4.676c1.13 0 2.075.812 2.289 1.881a.53.53 0 0 0 .043.494 2.336 2.336 0 0 1-2.332 2.301m-6.082 9.252a2.338 2.338 0 0 1-2.336-2.334 2.34 2.34 0 0 1 2.336-2.338 2.34 2.34 0 0 1 2.339 2.338 2.34 2.34 0 0 1-2.339 2.334m-6.609 9.78c-1.288 0-2.337-1.047-2.337-2.334a2.339 2.339 0 0 1 4.675 0 2.34 2.34 0 0 1-2.338 2.334m-6.08 10.314c-1.289 0-2.338-1.051-2.338-2.338s1.049-2.334 2.338-2.334c1.075 0 1.978.73 2.25 1.723l-.002.041c0 .086.022.173.063.244a2.339 2.339 0 0 1-2.311 2.664"/>
  <path fill="#FFF" d="M56.322 40.158c.553 19.917 21.467 36.082 47.682 36.33 0 .019-.034.033-.034.049a3.387 3.387 0 0 0 3.382 3.393 3.394 3.394 0 0 0 3.387-3.393 3.403 3.403 0 0 0-3.396-3.393 3.388 3.388 0 0 0-3.205 2.288c-24.555-.165-44.704-14.502-46.729-32.67 1.325 2.55 3.814 6.654 7.83 10.802 5.899 6.088 16.33 13.346 32.493 13.346a.555.555 0 0 0 .191-.037 3.406 3.406 0 0 0 3.333 2.751 3.395 3.395 0 1 0-3.379-3.746.452.452 0 0 0-.146-.025c-15.796 0-25.975-7.082-31.731-13.023a46.024 46.024 0 0 1-7.514-10.307 66.557 66.557 0 0 0 8.01 6.183c5.754 3.764 14.72 8.249 24.799 8.26a3.4 3.4 0 0 0 3.353 2.875 3.4 3.4 0 0 0 3.394-3.396 3.4 3.4 0 0 0-3.394-3.394 3.395 3.395 0 0 0-3.348 2.856c-15.058-.021-27.821-10.27-32.397-14.445 5.076 1.818 17.205 5.816 26.284 5.988a3.392 3.392 0 0 0 3.382 3.119c1.868 0 3.393-1.543 3.393-3.412 0-1.871-1.523-3.43-3.393-3.43a3.395 3.395 0 0 0-3.3 2.604c-8.83-.15-20.683-3.746-25.815-5.941h17.327c.309 1.647 1.682 2.767 3.325 2.767 1.873 0 3.396-1.457 3.396-3.324 0-1.873-1.522-3.427-3.396-3.427-1.733 0-3.171 1.238-3.366 2.886H59.203c4.992-1.647 17.092-5.708 26.064-5.862.357 1.494 1.697 2.736 3.299 2.736 1.869 0 3.395-1.539 3.395-3.408a3.406 3.406 0 0 0-3.395-3.403 3.396 3.396 0 0 0-3.381 3.122c-9.079.173-21.208 4.17-26.285 5.994 4.577-4.182 17.342-14.423 32.398-14.445a3.394 3.394 0 0 0 3.348 2.855 3.399 3.399 0 0 0 3.393-3.393 3.395 3.395 0 0 0-3.393-3.393 3.395 3.395 0 0 0-3.352 2.871c-10.08.015-19.047 4.5-24.801 8.264a66.07 66.07 0 0 0-7.912 6.092 46.061 46.061 0 0 1 7.447-10.16c5.758-5.93 15.928-12.993 31.701-12.993a.584.584 0 0 0 .161-.025 3.401 3.401 0 0 0 3.363 2.957 3.397 3.397 0 0 0 3.393-3.396 3.397 3.397 0 0 0-3.393-3.393 3.4 3.4 0 0 0-3.345 2.833.49.49 0 0 0-.181-.033c-16.164 0-26.594 7.258-32.493 13.346-4.087 4.219-6.59 8.392-7.894 10.925 1.608-18.449 21.876-33.108 46.669-33.322a3.398 3.398 0 0 0 3.324 2.725 3.393 3.393 0 0 0 .01-6.786c-1.741 0-3.114 1.313-3.31 3.002-26.401.241-47.715 16.63-47.715 36.743v.413zm48.709-36.397a.509.509 0 0 0-.025-.514 2.34 2.34 0 0 1 2.33-2.191 2.344 2.344 0 0 1 2.339 2.338 2.344 2.344 0 0 1-2.339 2.338 2.34 2.34 0 0 1-2.305-1.971m-6.114 9.942a2.342 2.342 0 0 1 2.339-2.335 2.338 2.338 0 0 1 2.334 2.335 2.338 2.338 0 0 1-2.334 2.338 2.342 2.342 0 0 1-2.339-2.338m-6.609 9.784a2.336 2.336 0 1 1 4.672.001 2.336 2.336 0 0 1-4.672-.001m-14.539 16.39a2.337 2.337 0 0 1 4.674 0 2.343 2.343 0 0 1-2.34 2.338 2.34 2.34 0 0 1-2.334-2.338m14.539 16.569a2.338 2.338 0 0 1 2.338-2.338 2.334 2.334 0 0 1 0 4.668 2.334 2.334 0 0 1-2.338-2.33m6.609 9.78a2.344 2.344 0 0 1 2.339-2.338c1.286 0 2.334 1.051 2.334 2.338s-1.048 2.334-2.334 2.334a2.34 2.34 0 0 1-2.339-2.334m6.081 10.31c0-.108.012-.219.025-.326a.475.475 0 0 0 .064-.244c0-.016-.004-.029-.004-.041a2.342 2.342 0 0 1 2.252-1.723c1.287 0 2.338 1.047 2.338 2.334s-1.051 2.338-2.338 2.338-2.337-1.051-2.337-2.338M86.273 33.2a.52.52 0 0 0-.045-.499 2.338 2.338 0 0 1 4.674.037 2.341 2.341 0 0 1-2.336 2.338 2.345 2.345 0 0 1-2.293-1.876m-.045 14.028a.51.51 0 0 0 .045-.494 2.345 2.345 0 0 1 2.293-1.881c1.288 0 2.336 1.051 2.336 2.338s-1.048 2.338-2.336 2.338a2.342 2.342 0 0 1-2.338-2.301"/>
</svg>
